<svg xmlns="http://www.w3.org/2000/svg" version="1.1" xmlns:xlink="http://www.w3.org/1999/xlink" xmlns:svgjs="http://svgjs.dev/svgjs" width="1500" height="1500" viewBox="0 0 1500 1500"><rect width="1500" height="1500" fill="#ffffff"></rect><g transform="matrix(0.6666666666666666,0,0,0.6666666666666666,249.39393939393938,649.7555676367788)"><svg viewBox="0 0 396 79" data-background-color="#ffffff" preserveAspectRatio="xMidYMid meet" height="299" width="1500" xmlns="http://www.w3.org/2000/svg" xmlns:xlink="http://www.w3.org/1999/xlink"><g id="tight-bounds" transform="matrix(1,0,0,1,0.2400000000000091,0.22898071920309349)"><svg viewBox="0 0 395.52 78.54203856159384" height="78.54203856159384" width="395.52"><g><svg viewBox="0 0 548.8758846755493 108.99532488803582" height="78.54203856159384" width="395.52"><g><rect width="7.112381245715163" height="94.6413819577735" x="127.62470435728142" y="7.17697146513116" fill="#a916ef" opacity="1" stroke-width="0" stroke="transparent" fill-opacity="1" class="rect-yte-0" data-fill-palette-color="primary" rx="1%" id="yte-0" data-palette-color="#a916ef"></rect></g><g transform="matrix(1,0,0,1,153.35588467554936,15.06375329494562)"><svg viewBox="0 0 395.52 78.86781829814458" height="78.86781829814458" width="395.52"><g id="textblocktransform"><svg viewBox="0 0 395.52 78.86781829814458" height="78.86781829814458" width="395.52" id="textblock"><g><svg viewBox="0 0 395.52 78.86781829814458" height="78.86781829814458" width="395.52"><g transform="matrix(1,0,0,1,0,0)"><svg width="395.52" viewBox="1.1 -36.75 234.43 46.75" height="78.86781829814458" data-palette-color="#a916ef"><path d="M7.1 0.2L7.1 0.2Q5.3 0.2 3.85-1.3 2.4-2.8 2.4-6.25L2.4-6.25Q2.4-9.05 3.05-11.75 3.7-14.45 4.53-17.23 5.35-20 5.93-22.98 6.5-25.95 6.3-29.25L6.3-29.25Q4.95-29.05 3.65-28.55 2.35-28.05 1.1-27.1L1.1-27.1Q1.1-30.25 1.65-32.23 2.2-34.2 3.8-35.1 5.4-36 8.55-36L8.55-36Q10.25-36 12.35-35.75 14.45-35.5 16.68-35.25 18.9-35 20.9-35L20.9-35Q22.85-35 24.4-35.38 25.95-35.75 26.8-36.75L26.8-36.75Q27.8-36.1 28.33-34.98 28.85-33.85 28.85-32.55L28.85-32.55Q28.85-31.2 28.23-29.93 27.6-28.65 26.3-27.83 25-27 22.9-27L22.9-27Q20.7-27 18.1-27.7 15.5-28.4 12.75-28.9L12.75-28.9Q13-27.8 13.13-26.7 13.25-25.6 13.25-24.45L13.25-24.45Q13.25-23.2 13.15-21.98 13.05-20.75 12.85-19.45L12.85-19.45Q13.9-20 15.4-20.45 16.9-20.9 18.48-21.2 20.05-21.5 21.3-21.5L21.3-21.5Q22.1-21.5 22.7-21.35L22.7-21.35Q23.2-20.3 23.2-18.8L23.2-18.8Q23.2-16.4 22-13.9L22-13.9 21.65-13.75Q19.8-14.75 17.38-15.3 14.95-15.85 12.3-16.05L12.3-16.05Q11.8-13.2 11.35-10.25 10.9-7.3 10.9-4.2L10.9-4.2Q10.9-3.55 10.93-2.85 10.95-2.15 11-1.45L11-1.45Q9.35 0.2 7.1 0.2ZM39.8 0.35L39.8 0.35Q36.05 0.35 33.6-1.15 31.15-2.65 29.97-5.13 28.8-7.6 28.8-10.4L28.8-10.4Q28.8-13.05 29.77-15.7 30.75-18.35 32.62-20.53 34.5-22.7 37.2-24.03 39.9-25.35 43.4-25.35L43.4-25.35Q47.15-25.35 49.57-23.83 52-22.3 53.17-19.8 54.35-17.3 54.35-14.45L54.35-14.45Q54.35-11.85 53.4-9.22 52.45-6.6 50.57-4.42 48.7-2.25 46-0.95 43.3 0.35 39.8 0.35ZM41.15-3.9L41.15-3.9Q42.5-3.9 43.4-5.3 44.3-6.7 44.75-8.88 45.2-11.05 45.2-13.3L45.2-13.3Q45.2-15.3 44.82-17.07 44.45-18.85 43.7-19.98 42.95-21.1 41.75-21.1L41.75-21.1Q40.45-21.1 39.52-19.7 38.6-18.3 38.15-16.15 37.7-14 37.7-11.7L37.7-11.7Q37.7-9.7 38.07-7.93 38.45-6.15 39.2-5.03 39.95-3.9 41.15-3.9ZM68.15 0.35L68.15 0.35Q64.4 0.35 61.95-1.15 59.5-2.65 58.32-5.13 57.15-7.6 57.15-10.4L57.15-10.4Q57.15-13.05 58.12-15.7 59.1-18.35 60.97-20.53 62.85-22.7 65.55-24.03 68.25-25.35 71.75-25.35L71.75-25.35Q75.5-25.35 77.92-23.83 80.34-22.3 81.52-19.8 82.7-17.3 82.7-14.45L82.7-14.45Q82.7-11.85 81.75-9.22 80.8-6.6 78.92-4.42 77.05-2.25 74.34-0.95 71.65 0.35 68.15 0.35ZM69.5-3.9L69.5-3.9Q70.84-3.9 71.75-5.3 72.65-6.7 73.09-8.88 73.55-11.05 73.55-13.3L73.55-13.3Q73.55-15.3 73.17-17.07 72.8-18.85 72.05-19.98 71.3-21.1 70.09-21.1L70.09-21.1Q68.8-21.1 67.87-19.7 66.95-18.3 66.5-16.15 66.05-14 66.05-11.7L66.05-11.7Q66.05-9.7 66.42-7.93 66.8-6.15 67.55-5.03 68.3-3.9 69.5-3.9ZM92.74 0.2L92.74 0.2Q90.94 0.2 89.37-1.05 87.79-2.3 86.82-4.7 85.84-7.1 85.84-10.5L85.84-10.5Q85.84-14 86.84-16.75 87.84-19.5 89.47-21.43 91.09-23.35 93.02-24.35 94.94-25.35 96.79-25.35L96.79-25.35Q98.84-25.35 100.44-24.08 102.04-22.8 102.64-20.1L102.64-20.1Q103.09-22.6 103.42-24.88 103.74-27.15 103.74-28.9L103.74-28.9Q103.74-31.2 103.14-32.25L103.14-32.25 103.14-32.55Q104.29-33.85 105.67-34.48 107.04-35.1 108.29-35.1L108.29-35.1Q109.94-35.1 111.09-34.08 112.24-33.05 112.24-31.15L112.24-31.15Q112.24-30.1 111.89-28.05 111.54-26 111.04-23.38 110.54-20.75 110.02-17.98 109.49-15.2 109.14-12.68 108.79-10.15 108.79-8.3L108.79-8.3Q108.79-6.75 109.12-5.83 109.44-4.9 110.19-4.9L110.19-4.9Q110.74-4.9 111.32-5.28 111.89-5.65 112.09-6.15L112.09-6.15 112.44-5.9Q112.44-4.25 111.39-2.88 110.34-1.5 108.74-0.65 107.14 0.2 105.44 0.2L105.44 0.2Q103.59 0.2 102.52-0.83 101.44-1.85 100.99-3.45 100.54-5.05 100.49-6.75L100.49-6.75Q98.94-3.15 96.87-1.48 94.79 0.2 92.74 0.2ZM96.09-6.15L96.09-6.15Q97.39-6.15 98.99-8.5 100.59-10.85 101.79-15.35L101.79-15.35 102.09-16.9Q101.29-18.75 100.37-19.53 99.44-20.3 98.59-20.3L98.59-20.3Q97.34-20.3 96.24-18.93 95.14-17.55 94.47-15.43 93.79-13.3 93.79-10.95L93.79-10.95Q93.79-8.7 94.44-7.43 95.09-6.15 96.09-6.15ZM120.54 0.2L120.54 0.2Q117.94 0.2 116.34-1.93 114.74-4.05 114.74-7.7L114.74-7.7Q114.74-10.05 115.29-12.85 115.84-15.65 116.59-18.48 117.34-21.3 117.89-23.65 118.44-26 118.44-27.35L118.44-27.35Q118.44-29.1 117.39-29.1L117.39-29.1Q116.69-29.1 115.84-28.35 114.99-27.6 114.59-26.4L114.59-26.4 114.09-26.6Q114.24-29.55 115.54-31.65 116.84-33.75 118.74-34.88 120.64-36 122.49-36L122.49-36Q124.44-36 125.84-34.63 127.24-33.25 127.24-30.15L127.24-30.15Q127.24-28.05 126.66-25.45 126.09-22.85 125.31-20.18 124.54-17.5 123.97-15.1 123.39-12.7 123.39-11.05L123.39-11.05Q123.39-9.85 123.79-9.15 124.19-8.45 125.14-8.45L125.14-8.45Q126.49-8.45 127.94-9.83 129.39-11.2 130.74-13.28 132.09-15.35 133.19-17.35L133.19-17.35Q133.99-24.25 135.49-28.35 136.99-32.45 138.76-34.25 140.54-36.05 142.09-36.05L142.09-36.05Q143.74-36.05 144.87-34.43 145.99-32.8 145.99-30.2L145.99-30.2Q145.99-27.9 144.87-25.03 143.74-22.15 140.94-19.2L140.94-19.2Q140.59-17.45 140.37-15.55 140.14-13.65 140.14-11.95L140.14-11.95Q140.14-9.8 140.62-8.38 141.09-6.95 142.29-6.95L142.29-6.95Q143.09-6.95 143.81-7.68 144.54-8.4 145.04-9.85L145.04-9.85 145.44-9.65Q145.44-4.8 143.47-2.3 141.49 0.2 138.79 0.2L138.79 0.2Q136.34 0.2 134.69-2.23 133.04-4.65 132.74-10.45L132.74-10.45Q129.99-4.95 126.64-2.38 123.29 0.2 120.54 0.2ZM154.34 0.15L154.34 0.15Q152.49 0.15 150.99-1.33 149.49-2.8 149.49-5.45L149.49-5.45Q149.49-6.75 149.84-8.4 150.19-10.05 150.61-11.75 151.04-13.45 151.39-14.95 151.74-16.45 151.74-17.4L151.74-17.4Q151.74-18.4 151.34-18.98 150.94-19.55 150.29-19.55L150.29-19.55Q149.44-19.55 148.44-18.55L148.44-18.55 148.14-18.75Q148.09-19.55 148.49-20.65 148.89-21.75 149.71-22.78 150.54-23.8 151.84-24.5 153.14-25.2 154.94-25.2L154.94-25.2Q157.59-25.2 158.86-23.68 160.14-22.15 160.14-19.95L160.14-19.95Q160.14-19.15 159.99-18.4L159.99-18.4Q161.04-19.95 162.59-21.53 164.14-23.1 166.01-24.15 167.89-25.2 169.89-25.2L169.89-25.2Q172.24-25.2 173.09-23.7 173.94-22.2 173.94-19.95L173.94-19.95Q173.94-17.85 173.49-15.45 173.04-13.05 172.59-10.83 172.14-8.6 172.14-7.1L172.14-7.1Q172.14-5.1 173.29-5.1L173.29-5.1Q173.89-5.1 174.34-5.48 174.79-5.85 174.94-6.2L174.94-6.2 175.29-6.05Q175.29-4.2 174.26-2.8 173.24-1.4 171.69-0.63 170.14 0.15 168.54 0.15L168.54 0.15Q166.59 0.15 165.09-1.2 163.59-2.55 163.59-5.6L163.59-5.6Q163.59-7.4 164.06-9.5 164.54-11.6 164.99-13.55 165.44-15.5 165.44-16.75L165.44-16.75Q165.44-17.5 165.16-17.93 164.89-18.35 164.19-18.35L164.19-18.35Q163.04-18.35 161.66-17.3 160.29-16.25 159.31-14.5 158.34-12.75 158.34-10.65L158.34-10.65Q158.34-9.3 158.66-8.05 158.99-6.8 158.99-5.35L158.99-5.35Q158.99-2.65 157.59-1.25 156.19 0.15 154.34 0.15ZM187.34-26.75L187.34-26.75Q185.34-26.75 184.06-27.98 182.78-29.2 182.78-31.05L182.78-31.05Q182.78-33.05 184.28-34.5 185.78-35.95 187.94-35.95L187.94-35.95Q189.94-35.95 191.21-34.7 192.49-33.45 192.49-31.6L192.49-31.6Q192.49-29.6 190.99-28.18 189.49-26.75 187.34-26.75ZM183.84 0.2L183.84 0.2Q181.88 0.2 180.34-1.18 178.78-2.55 178.78-5.6L178.78-5.6Q178.78-7.35 179.26-8.88 179.74-10.4 180.36-11.85 180.99-13.3 181.46-14.68 181.94-16.05 181.94-17.4L181.94-17.4Q181.94-18.6 181.53-19.13 181.13-19.65 180.59-19.65L180.59-19.65Q179.74-19.65 178.94-18.55L178.94-18.55 178.59-18.75Q178.78-20.75 179.86-22.18 180.94-23.6 182.51-24.4 184.09-25.2 185.63-25.2L185.63-25.2Q187.53-25.2 188.94-23.98 190.34-22.75 190.34-20L190.34-20Q190.34-18.35 189.86-16.53 189.38-14.7 188.76-12.9 188.13-11.1 187.66-9.55 187.19-8 187.19-6.9L187.19-6.9Q187.19-5.95 187.56-5.55 187.94-5.15 188.38-5.15L188.38-5.15Q188.84-5.15 189.26-5.43 189.69-5.7 189.88-6.05L189.88-6.05 190.24-5.95Q190.24-4.1 189.26-2.73 188.28-1.35 186.84-0.58 185.38 0.2 183.84 0.2ZM201.28 0.2L201.28 0.2Q199.68 0.2 198.26-0.53 196.83-1.25 195.96-2.8 195.08-4.35 195.08-6.75L195.08-6.75Q195.08-8.05 195.33-10.15 195.58-12.25 196.01-14.75 196.43-17.25 196.88-19.75L196.88-19.75Q195.88-19.7 194.96-19.55 194.03-19.4 193.13-19.2L193.13-19.2 193.03-19.55Q194.03-20.75 195.13-21.6 196.23-22.45 197.43-23L197.43-23Q198.08-26.3 198.53-28.73 198.98-31.15 198.98-31.6L198.98-31.6Q198.98-32.45 200.31-33 201.63-33.55 203.28-33.55L203.28-33.55Q204.73-33.55 206.01-33 207.28-32.45 207.73-31.15L207.73-31.15Q207.43-30.85 206.88-28.93 206.33-27 205.73-24.25L205.73-24.25Q206.68-24.2 207.68-24.15 208.68-24.1 209.73-24L209.73-24Q209.83-23.7 209.88-23.35 209.93-23 209.93-22.6L209.93-22.6Q209.93-21.85 209.71-20.98 209.48-20.1 209.18-19.4L209.18-19.4Q207.98-19.5 206.93-19.63 205.88-19.75 204.88-19.8L204.88-19.8Q204.48-17.65 204.16-15.5 203.83-13.35 203.66-11.6 203.48-9.85 203.48-8.85L203.48-8.85Q203.48-6.75 204.26-6.05 205.03-5.35 206.13-5.35L206.13-5.35Q207.13-5.35 207.93-5.75 208.73-6.15 209.08-6.7L209.08-6.7 209.58-6.55Q209.28-4.5 207.98-2.98 206.68-1.45 204.88-0.63 203.08 0.2 201.28 0.2ZM222.18 10L222.18 10Q219.68 10 218.16 8.47 216.63 6.95 216.63 4.35L216.63 4.35Q216.63 3 217.11 1.38 217.58-0.25 218.68-2.05L218.68-2.05Q216.23-2.2 214.66-3.7 213.08-5.2 213.08-8.25L213.08-8.25Q213.08-10.05 213.56-12.13 214.03-14.2 214.48-16.03 214.93-17.85 214.93-18.85L214.93-18.85Q214.93-19.6 214.63-19.93 214.33-20.25 213.93-20.25L213.93-20.25Q213.53-20.25 213.06-19.93 212.58-19.6 212.33-18.95L212.33-18.95 211.48-19.85Q211.78-21.4 212.78-22.6 213.78-23.8 215.23-24.5 216.68-25.2 218.23-25.2L218.23-25.2Q219.98-25.2 221.28-24.08 222.58-22.95 222.58-20L222.58-20Q222.58-18.15 222.13-16.03 221.68-13.9 221.23-12.03 220.78-10.15 220.78-9.05L220.78-9.05Q220.78-8.05 221.21-7.58 221.63-7.1 222.18-7.1L222.18-7.1Q222.88-7.1 223.78-7.88 224.68-8.65 225.48-10.45 226.28-12.25 226.53-15.3L226.53-15.3Q226.63-16.25 226.68-17.73 226.73-19.2 226.78-20.48 226.83-21.75 226.83-22.05L226.83-22.05Q226.83-23.85 228.16-24.58 229.48-25.3 231.08-25.3L231.08-25.3Q232.48-25.3 233.73-24.75 234.98-24.2 235.43-22.9L235.43-22.9 235.53-22.6Q235.08-22.2 234.76-19.9 234.43-17.6 233.98-13.75L233.98-13.75Q233.68-11.25 233.23-8.1 232.78-4.95 232.01-1.78 231.23 1.4 229.96 4.08 228.68 6.75 226.78 8.38 224.88 10 222.18 10ZM220.98 4.25L220.98 4.25Q222.53 4.25 223.76 1.43 224.98-1.4 225.68-6.6L225.68-6.6Q222.48-2.5 221.28-0.15 220.08 2.2 220.08 3.25L220.08 3.25Q220.08 4.25 220.98 4.25Z" opacity="1" transform="matrix(1,0,0,1,0,0)" fill="#a916ef" class="wordmark-text-0" data-fill-palette-color="primary" id="text-0"></path></svg></g></svg></g></svg></g></svg></g><g><svg viewBox="0 0 109.00590528472863 108.99532488803582" height="108.99532488803582" width="109.00590528472863"><g><svg xmlns="http://www.w3.org/2000/svg" xmlns:xlink="http://www.w3.org/1999/xlink" version="1.1" x="0" y="0" viewBox="2.474516600406096 2.4801370184487253 123.05096679918783 123.03902315229304" style="enable-background:new 0 0 128 128;" xml:space="preserve" height="108.99532488803582" width="109.00590528472863" class="icon-icon-0" data-fill-palette-color="accent" id="icon-0"><g fill="#c345ff" data-fill-palette-color="accent"><path d="M125.5 27.1C125.5 26.7 125.3 26.3 125.1 25.9 125 25.7 124.9 25.6 124.7 25.4S124.1 25 123.8 24.9C122.8 24.6 121.9 25.2 121.4 25.8 120.8 26.5 120.5 27.5 120.2 28.3L117.3 37.1C117.3 37.2 117.2 37.4 117.2 37.6 117 38.3 116.8 39.1 116.2 39.4 116 39.5 115.8 39.5 115.7 39.4S115.5 39.1 115.5 38.8L117.4 23.2C117.6 21.5 117.7 20.1 117.1 18.9 116.7 18.1 116 17.5 115.2 17.2 114.6 17 114 17 113.5 17.3 112.5 17.8 112.1 19.1 111.9 20.3 110.9 25.9 110 31.5 109.5 37.1 109.4 37.7 109.1 37.8 108.7 37.5 108.1 37.2 108.2 36.2 108.2 35.6V25.9C108.2 23.7 108.2 21.9 108.1 20.3V19.8C108 18.3 107.9 16.7 107.2 15.5 106.8 14.8 105.9 13.9 104.7 13.9 102.9 14 102 16.1 101.8 18 101.4 21.2 101.6 24.6 101.8 27.8 102 30.7 102.2 33.6 101.9 36.5 101.8 38.2 100.3 37.6 100.2 36.2L99 21.9C98.9 20.9 98.8 19.7 98.3 18.7 98.1 18.3 97.4 16.9 96 16.6 95.2 16.5 94.6 16.6 94.1 16.9 93 17.8 92.7 19.9 92.6 21.6 92.5 24.3 92.8 26.9 93 29.6 93.1 30.2 93.1 30.8 93.2 31.4 93.7 36.8 93.9 42.3 93.6 47.8 93.6 48 93.6 48.1 93.5 48.2 93.3 48.5 92.9 48.5 92.4 48.2 90.7 47.1 89.6 45.3 88.5 43.6 87.1 41.5 85.7 39.3 83.4 38.5 83 38.4 82.5 38.3 82 38.3 81.2 38.3 80.5 38.6 80.1 39.2 79.5 40 79.5 41.2 80.2 42.9 81.5 46 83.3 48.9 85 51.7 85.8 53 86.6 54.3 87.3 55.6L87.8 56.5C88.6 57.9 89.4 59.4 90.3 60.8L91.5 62.3C91.6 62.4 91.8 62.6 91.9 62.8 92.6 63.6 93.3 64.4 93.8 65.4 93.9 65.6 93.9 65.7 94 65.9 94.3 67.1 94.6 68.2 94.7 69.2 94.8 70 94.6 85.4 94.6 86.2 94.7 87.6 95.9 88.7 97.3 88.7L116.2 88.3C117.5 88.3 118.6 87.2 118.7 85.9 117.7 72.1 117.6 70.5 119.6 56.8 120.9 47.8 122.7 38.8 125 30.1 125.4 29 125.6 28 125.5 27.1M118.8 61.2V61z" fill="#c345ff" data-fill-palette-color="accent"></path><path d="M102.3 125.5C102.7 125.5 103.1 125.3 103.5 125.1 103.7 125 103.8 124.9 104 124.7S104.4 124.1 104.5 123.8C104.8 122.8 104.2 121.9 103.6 121.4 102.9 120.8 101.9 120.5 101.1 120.2L92.3 117.3C92.2 117.3 92 117.2 91.8 117.2 91.1 117 90.3 116.8 90 116.2 89.9 116 89.9 115.8 90 115.7S90.3 115.5 90.6 115.5L106.2 117.4C107.9 117.6 109.3 117.7 110.5 117.1 111.3 116.7 111.9 116 112.2 115.2 112.4 114.6 112.4 114 112.1 113.5 111.6 112.5 110.3 112.1 109.1 111.9 103.5 110.9 97.9 110 92.3 109.5 91.7 109.4 91.6 109.1 91.9 108.7 92.2 108.1 93.2 108.2 93.8 108.2H103.5C105.7 108.2 107.5 108.2 109.1 108.1H109.6C111.1 108 112.7 107.9 113.9 107.2 114.6 106.8 115.5 105.9 115.5 104.7 115.4 102.9 113.3 102 111.4 101.8 108.2 101.4 104.8 101.6 101.6 101.8 98.7 102 95.8 102.2 92.9 101.9 91.2 101.8 91.8 100.3 93.2 100.2L107.5 98.8C108.5 98.7 109.7 98.6 110.7 98.1 111.1 97.9 112.5 97.2 112.8 95.8 112.9 95 112.8 94.4 112.5 93.9 111.6 92.8 109.5 92.5 107.8 92.4 105.1 92.3 102.5 92.6 99.8 92.8 99.2 92.9 98.6 92.9 98 93 92.6 93.5 87.1 93.7 81.6 93.4 81.4 93.4 81.3 93.4 81.2 93.3 80.9 93.1 80.9 92.7 81.2 92.2 82.3 90.5 84.1 89.4 85.8 88.3 87.9 86.9 90.1 85.5 90.9 83.2 91 82.8 91.1 82.3 91.1 81.8 91.1 81 90.8 80.3 90.2 79.9 89.4 79.3 88.2 79.3 86.5 80 83.4 81.3 80.5 83.1 77.7 84.8 76.4 85.6 75.1 86.4 73.8 87.1L72.9 87.6C71.5 88.4 70 89.2 68.6 90.1L67.1 91.3C67 91.4 66.8 91.6 66.6 91.7 65.8 92.4 65 93.1 64 93.6 63.8 93.7 63.7 93.7 63.5 93.8 62.3 94.1 61.2 94.4 60.2 94.5 59.4 94.6 44 94.4 43.2 94.4 41.8 94.5 40.7 95.7 40.7 97.1L41.1 116C41.1 117.3 42.2 118.4 43.5 118.5 57.3 117.5 58.9 117.4 72.6 119.4 81.6 120.7 90.6 122.5 99.3 124.8 100.4 125.3 101.3 125.6 102.3 125.5M68.1 118.8H68.3z" fill="#c345ff" data-fill-palette-color="accent"></path><path d="M2.5 100.2C2.5 100.6 2.7 101 2.9 101.4 3 101.6 3.1 101.7 3.3 101.9S3.9 102.3 4.2 102.4C5.2 102.7 6.1 102.1 6.6 101.5 7.2 100.8 7.5 99.8 7.8 99L10.7 90.2C10.7 90.1 10.8 89.9 10.8 89.7 11 89 11.2 88.2 11.8 87.9 12 87.8 12.2 87.8 12.3 87.9S12.5 88.2 12.5 88.5L10.6 104.1C10.4 105.8 10.3 107.2 10.9 108.4 11.3 109.2 12 109.8 12.8 110.1 13.4 110.3 14 110.3 14.5 110 15.5 109.5 15.9 108.2 16.1 107 17.1 101.4 18 95.8 18.5 90.2 18.6 89.6 18.9 89.5 19.3 89.8 19.9 90.1 19.8 91.1 19.8 91.7V101.4C19.8 103.6 19.8 105.4 19.9 107V107.5C20 109 20.1 110.6 20.8 111.8 21.2 112.5 22.1 113.4 23.3 113.4 25.1 113.3 26 111.2 26.2 109.3 26.6 106.1 26.4 102.7 26.2 99.5 26 96.6 25.8 93.7 26.1 90.8 26.2 89.1 27.7 89.7 27.8 91.1L29.2 105.4C29.3 106.4 29.4 107.6 29.9 108.6 30.1 109 30.8 110.4 32.2 110.7 33 110.8 33.6 110.7 34.1 110.4 35.2 109.5 35.5 107.4 35.6 105.7 35.7 103 35.4 100.4 35.2 97.7 35.1 97.1 35.1 96.5 35 95.9 34.2 90.5 34 85 34.3 79.5 34.3 79.3 34.3 79.2 34.4 79.1 34.6 78.8 35 78.8 35.5 79.1 37.2 80.2 38.3 82 39.4 83.7 40.8 85.8 42.2 88 44.5 88.8 45 89 45.5 89 46 89 46.8 89 47.5 88.7 47.9 88.1 48.5 87.3 48.5 86.1 47.8 84.4 46.5 81.3 44.7 78.4 43 75.6 42.2 74.3 41.4 73 40.7 71.7L40.2 70.8C39.4 69.4 38.6 67.9 37.7 66.5L36.5 65C36.4 64.9 36.2 64.7 36.1 64.5 35.4 63.7 34.7 62.9 34.2 61.9 34.1 61.7 34.1 61.6 34 61.4 33.7 60.2 33.4 59.1 33.3 58.1 33.2 57.3 33.4 41.9 33.4 41.1 33.3 39.7 32.1 38.6 30.7 38.6L11.8 39C10.5 39 9.4 40.1 9.3 41.4 10.3 55.2 10.4 56.8 8.4 70.5 7.1 79.5 5.3 88.5 3 97.2 2.6 98.3 2.4 99.3 2.5 100.2M9.2 66.1V66.3z" fill="#c345ff" data-fill-palette-color="accent"></path><path d="M27.4 2.5C27 2.5 26.6 2.7 26.2 2.9 26 3 25.9 3.1 25.7 3.3S25.3 3.9 25.2 4.2C24.9 5.2 25.5 6.1 26.1 6.6 26.8 7.2 27.8 7.5 28.6 7.8L37.4 10.7C37.5 10.7 37.7 10.8 37.9 10.8 38.6 11 39.4 11.2 39.7 11.8 39.8 12 39.8 12.2 39.7 12.3S39.4 12.5 39.1 12.5L23.5 10.6C21.8 10.4 20.4 10.3 19.2 10.9 18.4 11.3 17.8 12 17.5 12.8 17.3 13.4 17.3 14 17.6 14.5 18.1 15.5 19.4 15.9 20.6 16.1 26.2 17.1 31.8 18 37.4 18.5 38 18.6 38.1 18.9 37.8 19.3 37.5 19.9 36.5 19.8 35.9 19.8H26.2C24 19.8 22.2 19.8 20.6 19.9H20.1C18.6 20 17 20.1 15.8 20.8 15.1 21.2 14.2 22.1 14.2 23.3 14.3 25.1 16.4 26 18.3 26.2 21.5 26.6 24.9 26.4 28.1 26.2 31 26 33.9 25.8 36.8 26.1 38.5 26.2 37.9 27.7 36.5 27.8L22.2 29C21.2 29.1 20 29.2 19 29.7 18.6 29.9 17.2 30.6 16.9 32 16.8 32.8 16.9 33.4 17.2 33.9 18.1 35 20.2 35.3 21.9 35.4 24.6 35.5 27.2 35.2 29.9 35 30.5 34.9 31.1 34.9 31.7 34.8 37.1 34.3 42.6 34.1 48.1 34.4 48.3 34.4 48.4 34.4 48.5 34.5 48.8 34.7 48.8 35.1 48.5 35.6 47.4 37.3 45.6 38.4 43.9 39.5 41.8 40.9 39.6 42.3 38.8 44.6 38.7 45 38.6 45.5 38.6 46 38.6 46.8 38.9 47.5 39.5 47.9 40.3 48.5 41.5 48.5 43.2 47.8 46.3 46.5 49.2 44.7 52 43 53.3 42.2 54.6 41.4 55.9 40.7L56.8 40.2C58.2 39.4 59.7 38.6 61.1 37.7L62.6 36.5C62.7 36.4 62.9 36.2 63.1 36.1 63.9 35.4 64.7 34.7 65.7 34.2 65.9 34.1 66 34.1 66.2 34 67.4 33.7 68.5 33.4 69.5 33.3 70.3 33.2 85.7 33.4 86.5 33.4 87.9 33.3 89 32.1 89 30.7L88.6 11.8C88.6 10.5 87.5 9.4 86.2 9.3 72.4 10.3 70.8 10.4 57.1 8.4 48 7 39 5.2 30.2 2.9 29.3 2.7 28.4 2.4 27.4 2.5M61.6 9.2H61.4z" fill="#c345ff" data-fill-palette-color="accent"></path></g></svg></g></svg></g></svg></g><defs></defs></svg><rect width="395.52" height="78.54203856159384" fill="none" stroke="none" visibility="hidden"></rect></g></svg></g></svg>